<svg width="45" height="44" viewBox="0 0 45 44" fill="none" xmlns="http://www.w3.org/2000/svg">
<path d="M42.9375 14.9157C41.6711 14.2739 40.1499 14.4077 39.015 15.2607L35.5781 17.8126C35.0909 13.025 31.0623 9.38112 26.25 9.37506H26.0907L18.3619 1.64815C17.3101 0.588982 15.8778 -0.00463099 14.3851 2.72098e-05H1.87497C0.839443 2.72098e-05 0 0.839558 0 1.87509C0 2.91061 0.839443 3.75006 1.87497 3.75006H14.385C14.882 3.75137 15.3584 3.94878 15.7106 4.29946L20.7862 9.37506H9.37503C4.19994 9.3813 0.00624023 13.575 0 18.7501V33.7501C0.00624023 38.9251 4.19994 43.1189 9.37503 43.1251H26.25C31.0624 43.119 35.0909 39.4751 35.5781 34.6876L39.0094 37.2451C40.6662 38.4877 43.0167 38.1519 44.2593 36.4951C44.7462 35.846 45.0093 35.0565 45.0093 34.2451V18.2682C45.0142 16.8471 44.2107 15.5469 42.9375 14.9157ZM31.875 33.75C31.875 36.8566 29.3566 39.375 26.25 39.375H9.37503C6.26845 39.375 3.75003 36.8566 3.75003 33.75V18.7501C3.75003 15.6435 6.26845 13.1251 9.37503 13.1251H26.25C29.3566 13.1251 31.875 15.6435 31.875 18.7501V33.75ZM41.25 34.2319L35.625 30.0395V22.4607L41.25 18.2683V34.2319Z" fill="#706F92"/>
</svg>
