<svg width="33" height="45" viewBox="0 0 33 45" fill="none" xmlns="http://www.w3.org/2000/svg">
<path d="M4.22812 26.7675C4.22812 25.5225 8.955 24.8232 11.1544 24.6525L11.3644 24.7744C10.5187 24.9282 7.12687 25.5263 7.12687 26.3063C7.12687 27.1557 12.33 27.7125 15.3487 27.7125C20.4769 27.7125 23.9644 26.9363 24.9019 26.6813L26.2144 27.4444C25.3162 27.885 21.4594 29.0363 15.3487 29.0363C8.55937 29.0363 4.22812 27.7088 4.22812 26.7675ZM14.5762 44.2575C11.8894 44.28 8.60812 44.0588 5.84812 43.5957L5.59125 43.7419C8.34187 44.5482 12.1706 45.0357 16.3762 44.9982C24.6375 44.9269 31.335 42.8775 31.4662 40.4119L31.3706 40.3557C30.8175 41.0325 27.2456 44.1469 14.5762 44.2575ZM15.2794 42.6694C22.0406 42.6094 29.6062 41.2875 29.5856 39.0638C29.5819 38.6607 29.3194 38.3832 29.0906 38.2182L28.98 38.2819C28.3556 40.005 23.0737 41.2782 15.2681 41.3457C10.2319 41.3907 3.25687 40.1832 3.24374 38.79C3.23249 37.3913 6.54937 36.6244 6.54937 36.6244L6.31499 36.4875C4.09312 36.7932 -0.00375516 37.8582 0.00936984 39.3957C0.0281198 41.6175 9.44062 42.72 15.2794 42.6694ZM30.5119 27.3619C30.375 29.97 27.9656 31.5957 25.5562 32.9663L25.7737 33.0919C28.3444 32.3682 32.9306 30.2625 32.5519 27.0263C32.3625 25.4138 30.8869 24.2588 28.965 24.2588C28.365 24.2588 27.8325 24.3638 27.4012 24.495L27.3994 24.4988L27.3075 24.7275C29.0287 24.3957 30.6 25.6519 30.5119 27.3619ZM10.65 35.1132C9.86625 35.2688 8.15624 35.6625 8.15624 36.4932C8.15624 37.6444 11.8144 38.5275 15.3469 38.5275C20.2069 38.5275 22.1981 37.2769 22.2881 37.2113L20.2669 36.0413C19.4081 36.2457 17.9587 36.5663 15.3525 36.5663C12.4425 36.5663 10.5469 36.0694 10.5469 35.5238C10.5469 35.4075 10.62 35.2707 10.7531 35.1694L10.65 35.1132ZM22.59 31.23C21.4725 31.5469 18.9544 32.0625 15.3544 32.0625C11.8219 32.0625 8.93437 31.4588 8.92499 30.7463C8.91749 30.2719 9.49125 30.0657 9.49125 30.0657L9.39 30.0075C7.69687 30.3057 6.12562 30.7688 6.13499 31.4607C6.14999 32.7169 10.9537 33.6582 15.3469 33.6582C19.0819 33.6582 22.6687 33.0319 24.2869 32.2107L22.59 31.23Z" fill="#706F92"/>
<path d="M21.6263 3.21938C21.6263 10.1438 12.1388 12.7931 12.1388 17.715C12.1388 21.1706 14.43 23.3381 15.6994 24.7088L15.5963 24.7687C13.995 23.7675 9.78375 21.2512 9.78375 17.0944C9.78375 11.2594 20.6831 8.47125 20.6831 1.84312C20.6831 1.0275 20.5631 0.40125 20.4769 0.065625L20.5856 0C20.9306 0.433125 21.6263 1.51875 21.6263 3.21938ZM24.7463 9.35063L24.6319 9.285C22.5675 9.97688 16.2113 12.4856 16.2113 17.1637C16.2113 19.8094 18.795 21.2756 18.795 23.7563C18.795 24.6413 18.2944 25.4719 17.8894 25.9669L18.0938 26.085C19.17 25.3856 21.0731 23.8725 21.0731 21.9187C21.0731 20.2631 18.7838 18.2756 18.7838 16.1475C18.7819 12.7969 23.2013 10.1681 24.7463 9.35063Z" fill="#706F92"/>
</svg>
