<svg width="43" height="45" viewBox="0 0 43 45" fill="none" xmlns="http://www.w3.org/2000/svg">
<path d="M40.7226 12.7508L36.9041 8.65768L38.5614 6.88205C38.7285 6.70909 38.8618 6.5022 38.9536 6.27344C39.0453 6.04468 39.0935 5.79864 39.0956 5.54968C39.0976 5.30072 39.0533 5.05382 38.9653 4.82339C38.8773 4.59296 38.7474 4.38361 38.5831 4.20756C38.4188 4.03151 38.2234 3.89229 38.0083 3.79801C37.7932 3.70374 37.5628 3.6563 37.3304 3.65846C37.0981 3.66062 36.8684 3.71235 36.6549 3.81061C36.4414 3.90888 36.2483 4.05172 36.0869 4.2308L34.4296 6.00643L30.6094 1.91518C29.4053 0.685783 27.8058 0 26.1425 0C24.4792 0 22.8797 0.685783 21.6756 1.91518C21.0886 2.54361 20.6229 3.28984 20.3052 4.1112C19.9875 4.93255 19.8239 5.81295 19.8239 6.70205C19.8239 7.59116 19.9875 8.47156 20.3052 9.29291C20.6229 10.1143 21.0886 10.8605 21.6756 11.4889L25.4941 15.5802L15.1796 26.6314L11.3594 22.5402C10.1553 21.3108 8.55578 20.625 6.8925 20.625C5.22922 20.625 3.62973 21.3108 2.42563 22.5402C1.8386 23.1686 1.37292 23.9148 1.0552 24.7362C0.737478 25.5576 0.573944 26.4379 0.573944 27.3271C0.573944 28.2162 0.737478 29.0966 1.0552 29.9179C1.37292 30.7393 1.8386 31.4855 2.42563 32.1139L6.24413 36.2052L4.58688 37.9808C4.41973 38.1538 4.28641 38.3607 4.1947 38.5894C4.10298 38.8182 4.05471 39.0642 4.05269 39.3132C4.05067 39.5621 4.09495 39.809 4.18294 40.0395C4.27093 40.2699 4.40087 40.4792 4.56518 40.6553C4.7295 40.8313 4.92489 40.9706 5.13996 41.0648C5.35502 41.1591 5.58546 41.2066 5.81783 41.2044C6.05019 41.2022 6.27983 41.1505 6.49333 41.0522C6.70684 40.954 6.89994 40.8111 7.06138 40.6321L8.71863 38.8564L12.5389 42.9477C13.1254 43.5764 13.8217 44.0751 14.5882 44.4153C15.3546 44.7556 16.1761 44.9307 17.0058 44.9307C17.8354 44.9307 18.6569 44.7556 19.4233 44.4153C20.1898 44.0751 20.8861 43.5764 21.4726 42.9477C22.0596 42.3194 22.5252 41.5733 22.8429 40.7521C23.1606 39.9309 23.3242 39.0507 23.3242 38.1617C23.3242 37.2728 23.1606 36.3926 22.8429 35.5713C22.5252 34.7501 22.0596 34.0041 21.4726 33.3758L17.6541 29.2846L27.9791 18.2314L31.7976 22.3227C32.3841 22.9514 33.0805 23.4501 33.8469 23.7903C34.6134 24.1306 35.4349 24.3057 36.2645 24.3057C37.0941 24.3057 37.9156 24.1306 38.6821 23.7903C39.4485 23.4501 40.1449 22.9514 40.7314 22.3227C41.3183 21.6944 41.784 20.9483 42.1017 20.1271C42.4194 19.3059 42.5829 18.4257 42.5829 17.5367C42.5829 16.6478 42.4194 15.7675 42.1017 14.9463C41.784 14.1251 41.3183 13.3791 40.7314 12.7508H40.7226ZM19.8241 38.1627C19.8249 38.5592 19.7523 38.9519 19.6105 39.3181C19.4687 39.6844 19.2606 40.0169 18.9981 40.2964C18.4617 40.8462 17.7481 41.153 17.0058 41.153C16.2634 41.153 15.5498 40.8462 15.0134 40.2964L4.90013 29.4608C4.37171 28.8946 4.07486 28.1268 4.07486 27.3261C4.07486 26.5255 4.37171 25.7576 4.90013 25.1914C5.42854 24.6253 6.14522 24.3072 6.8925 24.3072C7.63979 24.3072 8.35646 24.6253 8.88488 25.1914L18.9981 36.0271C19.2608 36.3068 19.469 36.6396 19.6108 37.0062C19.7526 37.3728 19.8251 37.7659 19.8241 38.1627ZM38.2481 19.6714C37.7117 20.2212 36.9981 20.528 36.2557 20.528C35.5134 20.528 34.7998 20.2212 34.2634 19.6714L24.1501 8.8358C23.8885 8.55547 23.6809 8.22267 23.5393 7.8564C23.3977 7.49013 23.3249 7.09757 23.3249 6.70112C23.3249 5.90045 23.6217 5.13258 24.1501 4.56643C24.6785 4.00027 25.3952 3.68221 26.1425 3.68221C26.8898 3.68221 27.6065 4.00027 28.1349 4.56643L38.2481 15.4021C38.51 15.6823 38.7177 16.015 38.8595 16.3813C39.0012 16.7476 39.0742 17.1402 39.0742 17.5367C39.0742 17.9333 39.0012 18.3259 38.8595 18.6922C38.7177 19.0585 38.51 19.3912 38.2481 19.6714Z" fill="#706F92"/>
</svg>
