<svg width="46" height="45" viewBox="0 0 46 45" fill="none" xmlns="http://www.w3.org/2000/svg">
<g clip-path="url(#clip0_78_52)">
<path d="M43.7079 41.25H9.95789C8.46604 41.25 7.0353 40.6574 5.98041 39.6025C4.92552 38.5476 4.33289 37.1168 4.33289 35.625V1.875C4.33289 1.37772 4.13534 0.900806 3.78371 0.549175C3.43208 0.197544 2.95517 0 2.45789 0C1.9606 0 1.48369 0.197544 1.13206 0.549175C0.78043 0.900806 0.582886 1.37772 0.582886 1.875L0.582886 35.625C0.585863 38.1105 1.57454 40.4933 3.33205 42.2508C5.08956 44.0083 7.47239 44.997 9.95789 45H43.7079C44.2052 45 44.6821 44.8025 45.0337 44.4508C45.3853 44.0992 45.5829 43.6223 45.5829 43.125C45.5829 42.6277 45.3853 42.1508 45.0337 41.7992C44.6821 41.4475 44.2052 41.25 43.7079 41.25Z" fill="#706F92"/>
<path d="M11.8329 37.5C12.3302 37.5 12.8071 37.3025 13.1587 36.9508C13.5103 36.5992 13.7079 36.1223 13.7079 35.625V22.5C13.7079 22.0027 13.5103 21.5258 13.1587 21.1742C12.8071 20.8225 12.3302 20.625 11.8329 20.625C11.3356 20.625 10.8587 20.8225 10.5071 21.1742C10.1554 21.5258 9.95789 22.0027 9.95789 22.5V35.625C9.95789 36.1223 10.1554 36.5992 10.5071 36.9508C10.8587 37.3025 11.3356 37.5 11.8329 37.5Z" fill="#706F92"/>
<path d="M19.3329 18.75V35.625C19.3329 36.1223 19.5304 36.5992 19.8821 36.9508C20.2337 37.3025 20.7106 37.5 21.2079 37.5C21.7052 37.5 22.1821 37.3025 22.5337 36.9508C22.8853 36.5992 23.0829 36.1223 23.0829 35.625V18.75C23.0829 18.2527 22.8853 17.7758 22.5337 17.4242C22.1821 17.0725 21.7052 16.875 21.2079 16.875C20.7106 16.875 20.2337 17.0725 19.8821 17.4242C19.5304 17.7758 19.3329 18.2527 19.3329 18.75Z" fill="#706F92"/>
<path d="M28.7079 24.375V35.625C28.7079 36.1223 28.9054 36.5992 29.2571 36.9508C29.6087 37.3025 30.0856 37.5 30.5829 37.5C31.0802 37.5 31.5571 37.3025 31.9087 36.9508C32.2603 36.5992 32.4579 36.1223 32.4579 35.625V24.375C32.4579 23.8777 32.2603 23.4008 31.9087 23.0492C31.5571 22.6975 31.0802 22.5 30.5829 22.5C30.0856 22.5 29.6087 22.6975 29.2571 23.0492C28.9054 23.4008 28.7079 23.8777 28.7079 24.375Z" fill="#706F92"/>
<path d="M38.0829 16.875V35.625C38.0829 36.1223 38.2804 36.5992 38.6321 36.9508C38.9837 37.3025 39.4606 37.5 39.9579 37.5C40.4552 37.5 40.9321 37.3025 41.2837 36.9508C41.6353 36.5992 41.8329 36.1223 41.8329 35.625V16.875C41.8329 16.3777 41.6353 15.9008 41.2837 15.5492C40.9321 15.1975 40.4552 15 39.9579 15C39.4606 15 38.9837 15.1975 38.6321 15.5492C38.2804 15.9008 38.0829 16.3777 38.0829 16.875Z" fill="#706F92"/>
<path d="M11.8329 16.875C12.3301 16.8749 12.807 16.6773 13.1585 16.3257L19.8823 9.6019C20.2396 9.26145 20.7143 9.07155 21.2079 9.07155C21.7015 9.07155 22.1761 9.26145 22.5335 9.6019L26.606 13.6744C27.6609 14.7289 29.0913 15.3213 30.5829 15.3213C32.0744 15.3213 33.5049 14.7289 34.5598 13.6744L45.0335 3.20066C45.3751 2.84703 45.564 2.3734 45.5598 1.88178C45.5555 1.39016 45.3583 0.919886 45.0107 0.572246C44.663 0.224606 44.1927 0.0274142 43.7011 0.0231422C43.2095 0.0188701 42.7359 0.20786 42.3823 0.549406L31.9085 11.0213C31.5569 11.3728 31.0801 11.5703 30.5829 11.5703C30.0857 11.5703 29.6089 11.3728 29.2573 11.0213L25.1848 6.95066C24.1299 5.89613 22.6994 5.30373 21.2079 5.30373C19.7163 5.30373 18.2859 5.89613 17.231 6.95066L10.5073 13.6744C10.2451 13.9366 10.0666 14.2707 9.99429 14.6343C9.92197 14.998 9.95911 15.3749 10.101 15.7175C10.2429 16.0601 10.4831 16.3529 10.7914 16.5589C11.0997 16.7649 11.4621 16.875 11.8329 16.875Z" fill="#706F92"/>
</g>
<defs>
<clipPath id="clip0_78_52">
<rect width="45" height="45" fill="white" transform="translate(0.582886)"/>
</clipPath>
</defs>
</svg>
