<svg width="46" height="45" viewBox="0 0 46 45" fill="none" xmlns="http://www.w3.org/2000/svg">
<g clip-path="url(#clip0_78_71)">
<path d="M32.9454 19.2975C33.8454 20.1768 35.0267 20.6175 36.2079 20.6175C37.3892 20.6175 38.5704 20.1768 39.4704 19.2975L42.836 16.005C46.4923 12.3487 46.4923 6.40121 42.836 2.74683C41.066 0.976831 38.711 0.00183105 36.2079 0.00183105C33.7048 0.00183105 31.3498 0.976831 29.5779 2.74683C25.9235 6.40308 25.9235 12.3506 29.5929 16.02L32.9454 19.2975ZM39.0223 8.97746C39.0223 10.53 37.7623 11.79 36.2098 11.79C34.6573 11.79 33.3973 10.53 33.3973 8.97746C33.3973 7.42496 34.6573 6.16496 36.2098 6.16496C37.7623 6.16496 39.0223 7.42496 39.0223 8.97746ZM45.5829 31.8768C45.5829 36.0131 42.2192 39.3768 38.0829 39.3768H24.9579C23.9229 39.3768 23.0829 38.5368 23.0829 37.5018C23.0829 36.4668 23.9229 35.6268 24.9579 35.6268H38.0829C40.151 35.6268 41.8329 33.945 41.8329 31.8768C41.8329 29.8087 40.151 28.1268 38.0829 28.1268H17.4579C13.3217 28.1268 9.95791 24.7631 9.95791 20.6268C9.95791 16.4906 13.3217 13.1268 17.4579 13.1268H23.0829C24.1179 13.1268 24.9579 13.9668 24.9579 15.0018C24.9579 16.0368 24.1179 16.8768 23.0829 16.8768H17.4579C15.3898 16.8768 13.7079 18.5587 13.7079 20.6268C13.7079 22.695 15.3898 24.3768 17.4579 24.3768H38.0829C42.2192 24.3768 45.5829 27.7406 45.5829 31.8768ZM19.3329 37.5018C19.3329 38.5368 18.4929 39.3768 17.4579 39.3768H14.6454L11.0623 43.9162C10.6967 44.5856 9.99541 45.0018 9.23416 45.0018H8.63416C7.91791 45.0018 7.42666 44.2818 7.68541 43.6143L9.33353 39.3768H4.98353C4.15478 39.3768 3.36728 39.0112 2.83291 38.3775L0.777908 35.94C0.221033 34.965 0.924158 33.7518 2.04728 33.7518C2.43541 33.7518 2.80666 33.9056 3.08041 34.1793L5.16166 35.6268H9.36353L7.69291 31.3931C7.42853 30.7256 7.92166 30.0018 8.63978 30.0018H9.19853C9.96166 30.0018 10.6629 30.4181 11.0267 31.0875L14.6435 35.6268H17.456C18.491 35.6268 19.331 36.4668 19.331 37.5018H19.3329Z" fill="#706F92"/>
</g>
<defs>
<clipPath id="clip0_78_71">
<rect width="45" height="45" fill="white" transform="translate(0.582886)"/>
</clipPath>
</defs>
</svg>
