<svg width="29" height="29" viewBox="0 0 29 29" fill="none" xmlns="http://www.w3.org/2000/svg">
<circle cx="14.1736" cy="14.1736" r="14.1736" fill="#706F92"/>
<g clip-path="url(#clip0_36_22)">
<path d="M15.0237 6.63239C15.0237 6.44693 15.0974 6.26907 15.2285 6.13793C15.3596 6.0068 15.5375 5.93312 15.723 5.93312C17.5769 5.93516 19.3543 6.67254 20.6652 7.98347C21.9762 9.29441 22.7136 11.0718 22.7156 12.9258C22.7156 13.1112 22.6419 13.2891 22.5108 13.4202C22.3796 13.5514 22.2018 13.625 22.0163 13.625C21.8309 13.625 21.653 13.5514 21.5219 13.4202C21.3907 13.2891 21.3171 13.1112 21.3171 12.9258C21.3154 11.4426 20.7255 10.0207 19.6767 8.97197C18.628 7.92323 17.2061 7.33332 15.723 7.33165C15.5375 7.33165 15.3596 7.25798 15.2285 7.12684C15.0974 6.99571 15.0237 6.81784 15.0237 6.63239ZM15.723 10.1287C16.4648 10.1287 17.1762 10.4234 17.7008 10.948C18.2253 11.4725 18.52 12.1839 18.52 12.9258C18.52 13.1112 18.5937 13.2891 18.7248 13.4202C18.856 13.5514 19.0338 13.625 19.2193 13.625C19.4047 13.625 19.5826 13.5514 19.7137 13.4202C19.8449 13.2891 19.9185 13.1112 19.9185 12.9258C19.9174 11.8134 19.475 10.7469 18.6885 9.96027C17.9019 9.17368 16.8353 8.73129 15.723 8.73018C15.5375 8.73018 15.3596 8.80385 15.2285 8.93499C15.0974 9.06613 15.0237 9.24399 15.0237 9.42945C15.0237 9.6149 15.0974 9.79276 15.2285 9.9239C15.3596 10.055 15.5375 10.1287 15.723 10.1287ZM22.0814 17.6381C22.4866 18.0445 22.7142 18.5949 22.7142 19.1688C22.7142 19.7427 22.4866 20.2931 22.0814 20.6995L21.445 21.433C15.7181 26.916 1.78171 12.9831 7.18003 7.23795L7.98419 6.53869C8.391 6.14478 8.93654 5.92686 9.50278 5.9321C10.069 5.93733 10.6104 6.16529 11.0099 6.56666C11.0316 6.58833 12.3273 8.27146 12.3273 8.27146C12.7118 8.67538 12.9258 9.21193 12.9249 9.76957C12.924 10.3272 12.7082 10.8631 12.3224 11.2657L11.5127 12.2838C11.9608 13.3727 12.6197 14.3622 13.4514 15.1957C14.2831 16.0291 15.2714 16.6899 16.3593 17.1402L17.3837 16.3256C17.7864 15.9401 18.3222 15.7246 18.8796 15.7238C19.4371 15.723 19.9735 15.937 20.3773 16.3214C20.3773 16.3214 22.0597 17.6164 22.0814 17.6381ZM21.1192 18.6548C21.1192 18.6548 19.4458 17.3675 19.4242 17.3458C19.2801 17.203 19.0854 17.1228 18.8826 17.1228C18.6797 17.1228 18.4851 17.203 18.341 17.3458C18.3221 17.3654 16.9117 18.4891 16.9117 18.4891C16.8167 18.5648 16.7035 18.6144 16.5835 18.633C16.4635 18.6516 16.3406 18.6387 16.2271 18.5954C14.8177 18.0707 13.5376 17.2491 12.4734 16.1865C11.4091 15.1239 10.5857 13.8449 10.0589 12.4363C10.0122 12.3212 9.99697 12.1958 10.0148 12.0729C10.0326 11.95 10.0828 11.8341 10.1603 11.737C10.1603 11.737 11.284 10.3259 11.3029 10.3077C11.4457 10.1637 11.5259 9.96901 11.5259 9.76614C11.5259 9.56328 11.4457 9.36862 11.3029 9.22456C11.2812 9.20358 9.99388 7.52885 9.99388 7.52885C9.84766 7.39774 9.65683 7.32752 9.46051 7.33259C9.26419 7.33767 9.07724 7.41764 8.93799 7.55612L8.13383 8.25538C4.18858 12.9992 16.2656 24.4063 20.4227 20.4778L21.0597 19.7436C21.209 19.6053 21.2987 19.4144 21.3098 19.2113C21.3209 19.0081 21.2525 18.8085 21.1192 18.6548Z" fill="white"/>
</g>
<defs>
<clipPath id="clip0_36_22">
<rect width="16.7824" height="16.7824" fill="white" transform="translate(5.93312 5.93314)"/>
</clipPath>
</defs>
</svg>
