<svg width="29" height="29" viewBox="0 0 29 29" fill="none" xmlns="http://www.w3.org/2000/svg">
<circle cx="14.1736" cy="14.5208" r="14.1736" fill="#706F92"/>
<g clip-path="url(#clip0_36_23)">
<path d="M23.3361 21.3733H23.4948L23.1906 20.9132C23.3767 20.9132 23.4752 20.795 23.4766 20.6502C23.4766 20.6446 23.4766 20.6383 23.4759 20.6327C23.4759 20.4356 23.3571 20.3412 23.113 20.3412H22.7186V21.3733H22.8669V20.9236H23.0494L23.3361 21.3733ZM23.0389 20.8069H22.8669V20.4579H23.0851C23.1976 20.4579 23.3263 20.4761 23.3263 20.6237C23.3263 20.7929 23.1969 20.8069 23.0389 20.8069Z" fill="white"/>
<path d="M19.3426 19.6174H17.2399V16.3246C17.2399 15.5393 17.2259 14.5289 16.1462 14.5289C15.0512 14.5289 14.8834 15.3841 14.8834 16.2679V19.6174H12.7814V12.8457H14.8002V13.7709H14.8281C15.24 13.0674 16.005 12.6471 16.8196 12.6772C18.951 12.6772 19.3433 14.0792 19.3433 15.9022L19.3426 19.6174ZM10.4088 11.9199C9.73469 11.9199 9.18857 11.3738 9.18857 10.6997C9.18857 10.0256 9.73469 9.47948 10.4088 9.47948C11.0829 9.47948 11.629 10.0256 11.629 10.6997C11.629 11.3738 11.0829 11.9199 10.4088 11.9199ZM11.4598 19.6174H9.35499V12.8457H11.4598V19.6174ZM20.3908 7.52713H8.2984C7.7271 7.52084 7.25859 7.97886 7.2516 8.55016V20.6922C7.25859 21.2642 7.7271 21.7222 8.2984 21.7159H20.3908C20.9635 21.7229 21.4341 21.2649 21.4418 20.6922V8.54946C21.4334 7.97676 20.9628 7.51874 20.3908 7.52643" fill="white"/>
<path d="M23.0571 19.8817C22.5228 19.8866 22.0935 20.3244 22.0991 20.8586C22.104 21.3929 22.5417 21.8222 23.076 21.8166C23.6102 21.8117 24.0395 21.374 24.0339 20.8397C24.0291 20.3125 23.6025 19.8866 23.076 19.8817H23.0571ZM23.0795 21.7054C22.6109 21.7131 22.2026 21.3404 22.1949 20.8719C22.1872 20.4034 22.5606 20.0174 23.0291 20.0097C23.4976 20.002 23.8836 20.3754 23.8913 20.8439C23.8913 20.8488 23.8913 20.853 23.8913 20.8579C23.9011 21.3159 23.5375 21.6956 23.0795 21.7054H23.0578H23.0795Z" fill="white"/>
</g>
<defs>
<clipPath id="clip0_36_23">
<rect width="16.7824" height="16.7824" fill="white" transform="translate(7.2516 6.28033)"/>
</clipPath>
</defs>
</svg>
