<svg width="29" height="30" viewBox="0 0 29 30" fill="none" xmlns="http://www.w3.org/2000/svg">
<circle cx="14.1736" cy="14.8679" r="14.1736" fill="#706F92"/>
<g clip-path="url(#clip0_36_25)">
<path d="M14.2949 23.4154L13.8075 22.9976C13.1355 22.4349 7.26801 17.3676 7.26801 13.6609C7.26801 9.78004 10.4141 6.63397 14.2949 6.63397C18.1758 6.63397 21.3218 9.78004 21.3218 13.6609C21.3218 17.3676 15.4544 22.435 14.7852 23.0004L14.2949 23.4154ZM14.2949 8.1534C11.2547 8.15684 8.79091 10.6206 8.78746 13.6609C8.78746 15.9895 12.3974 19.7094 14.2949 21.412C16.1925 19.7087 19.8024 15.9867 19.8024 13.6609C19.7989 10.6206 17.3352 8.15687 14.2949 8.1534Z" fill="white"/>
<path d="M14.2949 16.4463C12.7566 16.4463 11.5095 15.1992 11.5095 13.6609C11.5095 12.1226 12.7566 10.8755 14.2949 10.8755C15.8333 10.8755 17.0803 12.1226 17.0803 13.6609C17.0803 15.1992 15.8333 16.4463 14.2949 16.4463ZM14.2949 12.2682C13.5258 12.2682 12.9022 12.8917 12.9022 13.6609C12.9022 14.43 13.5258 15.0536 14.2949 15.0536C15.0641 15.0536 15.6876 14.43 15.6876 13.6609C15.6876 12.8917 15.0641 12.2682 14.2949 12.2682Z" fill="white"/>
</g>
<defs>
<clipPath id="clip0_36_25">
<rect width="16.7824" height="16.7824" fill="white" transform="translate(5.93312 6.62747)"/>
</clipPath>
</defs>
</svg>
