<svg width="29" height="29" viewBox="0 0 29 29" fill="none" xmlns="http://www.w3.org/2000/svg">
<circle cx="14.1736" cy="14.2151" r="14.1736" fill="#706F92"/>
<g clip-path="url(#clip0_36_24)">
<path d="M19.2191 6.67389H9.42944C8.5025 6.675 7.61384 7.04372 6.9584 7.69916C6.30295 8.35461 5.93423 9.24327 5.93312 10.1702L5.93312 18.5614C5.93423 19.4883 6.30295 20.377 6.9584 21.0324C7.61384 21.6879 8.5025 22.0566 9.42944 22.0577H19.2191C20.1461 22.0566 21.0347 21.6879 21.6902 21.0324C22.3456 20.377 22.7144 19.4883 22.7155 18.5614V10.1702C22.7144 9.24327 22.3456 8.35461 21.6902 7.69916C21.0347 7.04372 20.1461 6.675 19.2191 6.67389ZM9.42944 8.07242H19.2191C19.6379 8.07324 20.0467 8.19935 20.3932 8.4345C20.7396 8.66966 21.0078 9.0031 21.1631 9.39193L15.8081 14.7476C15.4141 15.1401 14.8805 15.3605 14.3243 15.3605C13.7681 15.3605 13.2345 15.1401 12.8405 14.7476L7.48549 9.39193C7.64083 9.0031 7.90897 8.66966 8.25541 8.4345C8.60185 8.19935 9.01073 8.07324 9.42944 8.07242ZM19.2191 20.6592H9.42944C8.87307 20.6592 8.33949 20.4382 7.94608 20.0448C7.55267 19.6513 7.33165 19.1178 7.33165 18.5614V11.2191L11.8517 15.7364C12.508 16.391 13.3973 16.7587 14.3243 16.7587C15.2513 16.7587 16.1405 16.391 16.7969 15.7364L21.3169 11.2191V18.5614C21.3169 19.1178 21.0959 19.6513 20.7025 20.0448C20.3091 20.4382 19.7755 20.6592 19.2191 20.6592Z" fill="white"/>
</g>
<defs>
<clipPath id="clip0_36_24">
<rect width="16.7824" height="16.7824" fill="white" transform="translate(5.93312 5.97461)"/>
</clipPath>
</defs>
</svg>
