<svg width="26" height="26" viewBox="0 0 26 26" fill="none" xmlns="http://www.w3.org/2000/svg">
<g clip-path="url(#clip0_64_6)">
<path d="M15.1667 24.9167C15.1667 25.5125 14.6792 26 14.0833 26H1.08333C0.4875 26 0 25.5125 0 24.9167C0 20.7242 3.39083 17.3333 7.58333 17.3333C11.7758 17.3333 15.1667 20.7242 15.1667 24.9167ZM11.9167 10.8333C11.9167 8.43917 9.9775 6.5 7.58333 6.5C5.18917 6.5 3.25 8.43917 3.25 10.8333C3.25 13.2275 5.18917 15.1667 7.58333 15.1667C9.9775 15.1667 11.9167 13.2275 11.9167 10.8333ZM20.5833 0H9.75C6.83583 0 4.47417 2.31833 4.355 5.2C5.30833 4.6475 6.4025 4.33333 7.58333 4.33333C10.5517 4.33333 13.0433 6.32667 13.8233 9.04583L16.25 11.4725L20.1392 7.58333H18.4167C17.8208 7.58333 17.3333 7.09583 17.3333 6.5C17.3333 5.90417 17.8208 5.41667 18.4167 5.41667H21.6667C22.8583 5.41667 23.8333 6.39167 23.8333 7.58333V10.8333C23.8333 11.4292 23.3458 11.9167 22.75 11.9167C22.1542 11.9167 21.6667 11.4292 21.6667 10.8333V9.11083L17.7775 13C16.9325 13.845 15.5567 13.845 14.7117 13L13.9317 12.22C13.9317 12.22 13.9317 12.2308 13.9317 12.2417C13.5958 13.7692 12.7183 15.0908 11.5158 16.0008C13.2167 16.7483 14.6575 17.9725 15.6867 19.5H20.5942C23.5842 19.5 26.0108 17.0733 26.0108 14.0833V5.41667C26.0108 2.42667 23.5842 0 20.5942 0H20.5833Z" fill="#706F92"/>
</g>
<defs>
<clipPath id="clip0_64_6">
<rect width="26" height="26" fill="white"/>
</clipPath>
</defs>
</svg>
