<svg width="26" height="26" viewBox="0 0 26 26" fill="none" xmlns="http://www.w3.org/2000/svg">
<g clip-path="url(#clip0_64_12)">
<path d="M11.9167 18.4167V22.6915C11.9167 24.1735 10.9243 25.506 9.48133 25.844C9.04583 25.9458 8.59192 26 8.125 26C5.50117 26 3.23375 24.3143 2.45592 21.8454C0.930583 20.8477 0 19.1598 0 17.3333C0 16.3735 0.254583 15.4516 0.743167 14.625C0.255667 13.7984 0 12.8765 0 11.9167C0 10.218 0.814667 8.62333 2.16667 7.60608V7.58333C2.16667 5.52825 3.60425 3.80358 5.52717 3.3605C5.97025 1.43867 7.696 0 9.75 0H9.77383C10.9579 0.00325 11.9167 0.96525 11.9167 2.14933V8.66667H9.44992C9.07508 8.02208 8.38392 7.58333 7.58333 7.58333C6.38625 7.58333 5.41667 8.55292 5.41667 9.75C5.41667 10.9471 6.38625 11.9167 7.58333 11.9167C8.38283 11.9167 9.074 11.4779 9.44992 10.8333H11.9167V16.25H9.44992C9.07508 15.6054 8.38392 15.1667 7.58333 15.1667C6.38625 15.1667 5.41667 16.1363 5.41667 17.3333C5.41667 18.5304 6.38625 19.5 7.58333 19.5C8.38283 19.5 9.074 19.0613 9.44992 18.4167H11.9167ZM26 11.9167C26 10.218 25.1853 8.62333 23.8333 7.60608V7.58333C23.8333 5.52825 22.3958 3.80358 20.4728 3.3605C20.0298 1.43867 18.304 0 16.25 0H16.2262C15.0421 0.00325 14.0833 0.96525 14.0833 2.14933V13H17.3333V11.6166C16.6888 11.2417 16.25 10.5506 16.25 9.75C16.25 8.55292 17.2196 7.58333 18.4167 7.58333C19.6138 7.58333 20.5833 8.55292 20.5833 9.75C20.5833 10.5495 20.1446 11.2407 19.5 11.6166V15.1667H14.0833V22.6915C14.0833 24.1735 15.0757 25.506 16.5187 25.844C16.9542 25.9458 17.4081 26 17.875 26C20.4988 26 22.7663 24.3143 23.5441 21.8454C25.0694 20.8477 26 19.1598 26 17.3333C26 16.3735 25.7454 15.4516 25.2568 14.625C25.7443 13.7984 26 12.8765 26 11.9167Z" fill="#706F92"/>
</g>
<defs>
<clipPath id="clip0_64_12">
<rect width="26" height="26" fill="white"/>
</clipPath>
</defs>
</svg>
